<?xml version="1.0" encoding="utf-8"?>
<!-- Generator: Adobe Illustrator 28.0.0, SVG Export Plug-In . SVG Version: 6.00 Build 0)  -->
<svg version="1.1" xmlns="http://www.w3.org/2000/svg" xmlns:xlink="http://www.w3.org/1999/xlink" x="0px" y="0px"
	 viewBox="0 0 526.56 306.05" style="enable-background:new 0 0 526.56 306.05;" xml:space="preserve">
<style type="text/css">
	.st0{fill:#95BA70;}
</style>
<g id="Layer_1">
	<g>
		<path class="st0" d="M355.1,225.03c3.44-3.35,4.01-7.63,3.78-12.14c-2.73-27.32,23.51,1.28,32.33,6.62
			c8.19,6.29,17.21,11.34,26.24,16.27c8.05,3.66,23.19,16.41,30.52,7.21c6.22-13.42-22.58-28.8-28.89-39.78
			c-3.39-4.89-4.56-11.57,2.31-10.26c5.18,1.24,9.67,6.06,13.62,9.63c6.3,5.84,11.61,12.78,17.96,18.43
			c5.3,4.73,11.63,8.25,17.91,11.82c34.68,20.07,16.84-16.97,8.94-32.97c-5.35-12.31-12.25-23.95-20.41-34.58
			c-10.57-13.7-21.84-26.77-32.03-40.77c-12.36-15.59-28.27-27.79-42.12-42c-5.08-5.15-10.13-10.37-15.41-15.31
			c-13.96-11.97-36.37-32.41-55.22-32.74c-11.58,0.35-15.82,12.27-18.52,20.93c-3.21,9.02-5.1,18.34-10.68,26.11
			c-5.73,7.43-11.3,14.33-17.95,20.92c-5.41,4.94-10.46,10.1-17.19,13.03c-9.12,3.91-20.1,8.24-29.57,3.11
			c-10.91-4.9-11.57-20.72-16.25-19.4c-3.22,1.64-5.57,5.99-7.79,8.99c-5.18,7.38-15.93,17.14-24.84,19.54
			c-13.11,3.53-16.99-9.2-14.33-19.88c4.03-17.03,23.08-60.75,44.31-59.04c8.27,2.56-7.42,9.64-9.54,12.31
			c-3.15,2.8-5.86,6.15-8.18,9.67c-6.61,10.92-18.42,30.45-17.8,43.34c0.99,6.91,11.44,2.86,15.45-0.86
			c9.97-9.66,18.62-21.83,24.15-34.48c3.47-6.78,3.45-24.66,11.02-26.89c8.56,1.24-2.16,32.88,2.39,47
			c5.72,17.77,17.32,12.25,28.38,6.98c5.1-2.43,8.98-5.61,13.02-8.87c8.19-5.87,15.24-18.87,19.84-28.1
			c4.52-11.41,1.99-22.74,8.53-33.4c13.88-20.13,36.03-11.43,52.71-1.13c6.82,4.75,14.43,8.97,21.27,13.91
			c6.68,5.06,12.45,10.78,18.81,16.3c11.12,9.36,20.02,20.88,31.09,30.36c7.48,7.65,15,15.26,22.22,23.09
			c5.04,5.82,8.82,12.51,13.63,18.47c3.92,4.95,8.64,9.32,12.82,14.06c7.37,8.32,12.55,17.76,18.63,27.11
			c5.83,8.79,8.84,19,13.19,28.51c4.26,9.18,9.3,19.73,7.54,29.92c-1.3,8.33-9.39,13.56-17.68,12.09
			c-6.3-0.31-21.03-8.42-21.03-8.42s-4.74,11.22-10.36,13.8c-7.17,3.87-15.9,2.23-23.09-0.85c-13.93-6.18-26.29-14.85-39.49-22.19
			c-3.6-1.99-11.82-7.12-11.82-7.12s-5.67,8.87-8.84,12.53c-11.58,15.78-31.21,22.18-49.54,26.48
			c-20.67,4.17-19.43-16.81-27.91-16.27c-1.78,0.41-4.51,3.18-6.41,5.45c-8.7,10.07-19.77,21.96-34.26,20.52
			c-20.66-2.51-15.93-24.45-11.34-38.69c4.45-16.47-6.4-5.39-12.07-0.08c-7.47,6.71-14.45,13.91-21.32,21.1
			c-6.87,7.06-14.03,14.87-23.05,19.32c-9.71,5.42-21.71,1.09-24.28-10.08c-2.84-9.31-0.61-19.61-0.87-29.17
			c-0.3-4.05-2.84-4.64-4.1-6.93c-0.43-0.68,1.09-2.19,1.92-3.08c3.96-3.99,7.8-8.51,10.34-13.64c3.78-7.03,15.84-15.86,22.75-20.3
			c0.36-0.23,0.74-0.44,1.13-0.61c8.6-3.93,18.52-4.39,22.13-0.12c4.63,5.49,0.53,17.42-12.24,25.3c-2.04,1.33-3.43,3.35-4.95,5.18
			c-1.37,1.65-3.29,2.75-5.4,3.12c-1.37,0.24-2.81,0.45-3.9,0.86c-10.6,3.81-18.67,18.33-18.51,28.14
			c0.16,18.93,12.46,16.37,23.54,6.17c14.94-13.12,28.93-27.4,45.99-37.83c15.16-8.24,21.76-27.07,38.35-33.26
			c15.63-4.97,12.7,10.14,4.8,16.59c-8.75,6.52,8.21-14.49-3.3-8.14c-9.13,6.12-16.04,15.73-21.41,25.19
			c-4.78,10.13-9.49,21.01-9.47,32.25c0.67,11.07,12.24,11.79,19.44,5.64c13.41-11.32,27.37-25.02,29.43-43.33
			c0.95-5.34,1.72-15.66,7.59-17.05c7.25,1.15,3.24,14.36,2.85,19.95c-2.85,22.79-1.14,34.89,25.67,26.86
			c9.58-4.05,17.02-13.66,24.69-20.3L355.1,225.03z M207.07,197.38c-0.02-3-3.18-4.21-5.82-3.87c-6.01,0.65-20.32,9.29-23.84,14
			c-2.3,3.08-5.37,8.49-5.13,10.82c0.44,3.48,4.93,0.84,6.99-0.38c0.21-0.12,0.41-0.25,0.61-0.39c5.31-3.75,26.81-13.6,27.19-20.01
			L207.07,197.38z"/>
		<path class="st0" d="M118.63,263.85c0.33,1.45,3.83-1.06,5.56-2.91c4.11-4.11,9.4-10.46,13.57-14.88
			c2.11-2.15,3.96-4.33,6.46-5.71c1.93-0.88,0.73,2.25-2.35,6.25c-5.22,6.71-11.21,13.57-16.7,20.02c-2.23,2.54-4.61,5.15-7.6,6.69
			c-3.68,1.9-7.93,1.61-9.38-1.97c-1.17-2.87,0.13-7.36,1.73-11.46c1.82-4.62,3.51-9.2,5.2-13.84c2.01-5.51,4.17-11.2,4.4-17.09
			c0.28-8.35-7.36-11.5-14.59-9.74c-11.86,2.59-20.76,15.31-33.36,16.12c-3.85,0.24-8.05-1.66-11.42,0.77
			c-2.66,1.97-4.98,7.65-7.32,11.51c-4.64,7.51-10.25,15-16.94,20.89c-3.14,2.85-9.43,4.52-12,1.3c-1.55-1.7-1.54-4.07-0.35-6.07
			c1.8-3.37,4.69-5.75,6.76-8.98c2.68-4.55,5.62-8.84,8.86-13.43c1.41-2.1,2.89-4.15,4.39-6.19c4.57-6.14,7.5-12.71,11.11-19.27
			c5.24-8.54,9.8-17.75,14.35-26.73c3.76-7.2,6.6-14.7,10.35-21.87c4.02-7.99,9.28-15.69,19.32-13.96
			c11.41,1.87,20.4,11.6,22.31,22.8c1.43,8.85-3.75,16.98-7.85,24.36c-4.04,7.23-0.02,8.09,6.27,9.69
			c15.38,3.83,10.85,20.18,7.05,31.31c-1.52,4.57-3.25,9.17-5.34,13.59c-1.04,2.56-3.02,6.13-2.51,8.71L118.63,263.85z
			 M111.9,179.14c0.65-6.07-2.45-14.33-7.82-16.84c-6.81-2.74-10.75,5.85-13.9,10.51c-7.48,11.08-11.82,23.71-17.53,35.63
			c-2.69,5-6.19,9.85-7.26,15.33c-0.51,2.9,0.15,5.42,2.81,4.9c2.09-0.43,5.91-2.97,9.43-5.12c3.66-2.2,7.57-4.08,11.04-6.57
			c9.89-6.98,22.13-25.59,23.21-37.64L111.9,179.14z"/>
		<path class="st0" d="M130.44,96.69c2.2-0.32,4.31-4.5,5.66-6.58c6.23-10.83,11.43-22.06,17.89-32.67
			c4.6-7.45,12.58-21.81,21.12-24.26c1.74-0.37,2.71,0.07,2.88,1.33c-0.06,5.03-5.85,9.74-8.44,14.15
			c-4.1,5.75-8.3,11.51-11.74,17.71c-7.23,13.61-13.4,28.02-22.62,40.49c-3.16,4.43-11.08,10.07-14.07,2.88
			c-1.28-3.2-0.98-7.23-0.84-10.72c0.68-13.44,1.02-26.76,0.78-40.24c-0.15-4.15-0.22-8.54-1.16-12.56
			c-1.44-6.23-5.23-6.52-8.74-1.25c-2.7,3.98-4.53,8.71-6.65,13.05c-3.26,6.99-7.21,13.69-10.8,20.58
			c-8.06,16.33-17.23,31.93-25.65,47.95c-2.59,4.43-6.01,9.19-10.42,11.71c-4.69,2.81-6.87,0.7-5.12-4.25
			c4.98-11.69,11.89-22.87,17.56-34.16C78.63,82.99,88.61,67,97.4,50.25c3.76-6.95,6.83-14.76,13.06-19.88
			c10.31-8.07,16.43-0.18,18.13,10.17c2.32,9.91,0.91,20.02,0.87,30.11c0.02,4.69,0.28,9.4,0.15,14.09
			c0.16,3.37-1.37,10.86,0.77,11.94L130.44,96.69z"/>
	</g>
</g>
<g id="Layer_2">
</g>
</svg>
